<svg id="Layer_1" data-name="Layer 1" xmlns="http://www.w3.org/2000/svg" viewBox="0 0 119.68 67"><defs><style>.cls-1,.cls-2{fill:none;stroke:#000;stroke-linecap:round;stroke-width:2px;}.cls-1{stroke-linejoin:round;}.cls-2{stroke-miterlimit:10;}</style></defs><title>AirIT-Icons-06-ART_icon-complimentary-it-support</title><path class="cls-1" d="M67.88,64.58A11.14,11.14,0,0,0,69.22,69s13.54,3.92,14.93,9.33,1,7,1,7a47.57,47.57,0,0,1-50.26.06s-.37-1.6,1-7S50.81,69,50.81,69a12.25,12.25,0,0,0,1.37-4.62" transform="translate(-0.16 -26.5)"/><path class="cls-1" d="M71.66,55.13c-1.38,6.41-4.08,10.2-5.51,11.63-1,1-3.47,1.49-6,1.5H60c-2.5,0-5-.51-6-1.5-1.43-1.43-4.14-5.22-5.51-11.63a75.64,75.64,0,0,1-1.29-8.44c-.8-8,3.54-15.17,12.76-15.17S72.87,36.7,72.87,46.05a51.51,51.51,0,0,1-1.21,9.08" transform="translate(-0.16 -26.5)"/><rect class="cls-2" x="72.36" y="46.82" width="4.13" height="9.16" rx="1.25" ry="1.25" transform="translate(139.99 87.03) rotate(-171.24)"/><path class="cls-1" d="M74.54,56.23c-.24,1.16-.41,1.71-.41,1.71-1.69,7.21-6,15.9-13.79,15.9" transform="translate(-0.16 -26.5)"/><path class="cls-1" d="M43.93,47.05c0-.13,0-.26,0-.4C42.87,36.58,48.35,27.5,60,27.5S76.25,34,76.25,45.85A9.7,9.7,0,0,1,76.16,47" transform="translate(-0.16 -26.5)"/><rect class="cls-2" x="43.73" y="46.82" width="4.13" height="9.16" rx="1.25" ry="1.25" transform="translate(-7.45 -18.93) rotate(-8.76)"/><path class="cls-1" d="M75.67,71.42c3.57-3.65,12.06-6.11,12.06-6.11A11.1,11.1,0,0,0,89,61.13" transform="translate(-0.16 -26.5)"/><path class="cls-1" d="M103.18,61.3a9.89,9.89,0,0,0,1.21,4s12.26,3.55,13.51,8.45.88,6.29.88,6.29A43.1,43.1,0,0,1,85.15,85.2" transform="translate(-0.16 -26.5)"/><path class="cls-1" d="M106.6,52.76c-1.25,5.8-3.7,9.22-5,10.52-.89.9-3.14,1.34-5.4,1.35h-.16c-2.26,0-4.51-.45-5.4-1.35-1.29-1.3-3.74-4.72-5-10.52a69.92,69.92,0,0,1-1.16-7.65C83.77,37.89,87.7,31.38,96,31.38s11.65,4.7,11.65,13.16a47,47,0,0,1-1.09,8.22" transform="translate(-0.16 -26.5)"/><rect class="cls-2" x="107.23" y="45.23" width="3.73" height="8.29" rx="1.13" ry="1.13" transform="translate(209.24 88.29) rotate(-171.24)"/><path class="cls-1" d="M109.2,53.75c-.21,1-.36,1.55-.36,1.55-1.54,6.52-5.47,14.39-12.49,14.39" transform="translate(-0.16 -26.5)"/><path class="cls-1" d="M81.5,45.44c0-.12,0-.24,0-.36C80.55,36,85.5,27.75,96,27.75s14.71,5.92,14.71,16.61a9.52,9.52,0,0,1-.08,1" transform="translate(-0.16 -26.5)"/><rect class="cls-2" x="81.32" y="45.23" width="3.73" height="8.29" rx="1.13" ry="1.13" transform="translate(-6.71 -13.26) rotate(-8.76)"/><path class="cls-1" d="M34.82,85.18A43.13,43.13,0,0,1,1.2,80.11s-.34-1.46.92-6.35,13.52-8.45,13.52-8.45a11.29,11.29,0,0,0,1.24-4.18" transform="translate(-0.16 -26.5)"/><path class="cls-1" d="M31.08,61.3a10,10,0,0,0,1.22,4s8.09,2.35,11.8,5.85" transform="translate(-0.16 -26.5)"/><path class="cls-1" d="M34.51,52.76c-1.25,5.8-3.7,9.22-5,10.52-.9.9-3.14,1.34-5.4,1.35H24c-2.26,0-4.51-.45-5.4-1.35-1.3-1.3-3.74-4.72-5-10.52a67,67,0,0,1-1.16-7.65c-.73-7.22,3.2-13.73,11.54-13.73S35.6,36.08,35.6,44.54a47,47,0,0,1-1.09,8.22" transform="translate(-0.16 -26.5)"/><rect class="cls-2" x="35.14" y="45.23" width="3.73" height="8.29" rx="1.13" ry="1.13" transform="translate(65.9 77.31) rotate(-171.24)"/><path class="cls-1" d="M37.11,53.75c-.21,1-.37,1.55-.37,1.55-1.53,6.52-5.46,14.39-12.48,14.39" transform="translate(-0.16 -26.5)"/><path class="cls-1" d="M9.41,45.44c0-.12,0-.24,0-.36C8.45,36,13.41,27.75,24,27.75s14.71,5.92,14.71,16.61a9.52,9.52,0,0,1-.08,1" transform="translate(-0.16 -26.5)"/><rect class="cls-2" x="9.23" y="45.23" width="3.73" height="8.29" rx="1.13" ry="1.13" transform="translate(-7.55 -24.23) rotate(-8.76)"/></svg>